<svg width="319" height="116" viewBox="0 0 319 116" fill="none" xmlns="http://www.w3.org/2000/svg">
<g clip-path="url(#clip0_1_13)">
<path fill-rule="evenodd" clip-rule="evenodd" d="M41.9838 1.5628C43.2081 0.552549 44.746 0 46.3333 0C47.9207 0 49.4585 0.552549 50.6829 1.5628C59.0066 8.48215 66.6321 16.2007 73.4499 24.6078C82.9482 36.417 92.6667 52.4426 92.6667 69.2037C92.6667 81.492 87.7851 93.2771 79.0959 101.966C70.4068 110.655 58.6217 115.537 46.3333 115.537C34.045 115.537 22.2599 110.655 13.5707 101.966C4.88153 93.2771 0 81.492 0 69.2037C0 52.4426 9.71842 36.417 19.2167 24.602C26.033 16.1972 33.6623 8.48061 41.9838 1.5628Z" fill="#A4D4FF"/>
<path d="M15.0102 59.6126C19.78 58.1858 24.7166 57.4725 29.42 57.4725C35.5141 57.4725 39.9857 58.3725 45.7491 58.3725C51.7117 58.3725 55.4216 54.5872 55.4216 49.6558C55.4216 44.6 51.2807 41 46.1801 41C42.4038 41 39.0911 43.2037 37.7004 46.1498C37.1704 47.1742 37.3697 48.3839 38.5286 48.9424C39.5886 49.4387 40.8803 49.1277 41.5756 47.8571C42.3049 46.2742 44.0927 45.0341 46.1801 45.0341C48.929 45.0341 51.0828 46.8327 51.0828 49.6558C51.0828 52.4788 48.9954 54.3384 45.7491 54.3384C40.2514 54.3384 35.7133 53.408 29.42 53.408C24.0212 53.408 18.5547 54.3079 13.6859 55.7638C12.2938 56.137 11.7638 57.2541 12.096 58.3394C12.4267 59.3942 13.5206 60.0163 15.0102 59.6126ZM66.8169 74.1289C74.5334 74.1289 80 69.5376 80 63.1173C80 56.7882 74.7991 52.1983 68.3404 52.1983C62.3453 52.1983 57.9061 56.1066 57.1105 61.2551C56.9126 62.527 57.6744 63.5514 58.8658 63.7062C60.0925 63.8611 61.1525 63.1477 61.4167 61.6892C61.9806 58.4638 64.8623 56.2297 68.3404 56.2297C72.3824 56.2297 75.6612 59.0527 75.6612 63.1173C75.6612 67.2427 72.1831 70.0962 66.8169 70.0962C56.7133 70.0962 45.8155 64.6989 32.566 64.6989C25.7426 64.6989 19.5157 65.7219 13.6845 67.6768C12.3277 68.1109 11.7638 69.1962 12.096 70.2828C12.4267 71.3376 13.5531 71.9888 15.0102 71.5229C20.4089 69.5998 26.0408 68.7621 32.566 68.7621C45.783 68.7621 55.6534 74.1289 66.8169 74.1289ZM45.783 95.9987C50.8849 95.9987 54.8252 92.4622 54.8252 87.4064C54.8252 80.0861 46.843 75.9911 32.1349 75.9911C25.9744 75.9911 19.3164 77.1081 13.6859 78.9386C12.3277 79.3727 11.7638 80.458 12.096 81.5432C12.4267 82.5981 13.5531 83.2506 15.0102 82.7847C20.2775 81.0165 26.1737 80.0556 32.1363 80.0556C44.1591 80.0556 50.5189 82.8773 50.5189 87.4064C50.5189 90.2599 48.399 91.9672 45.783 91.9672C43.1656 91.9672 41.5756 90.3221 41.1121 87.7161C40.9142 86.5686 40.0196 85.6382 38.595 85.7308C37.104 85.8235 36.5076 87.0041 36.7069 88.2442C37.3033 92.5562 40.715 95.9987 45.783 95.9987Z" fill="#E3EAF0"/>
<path d="M107.14 18.8H111.64L114.62 22.36L117.6 18.8H122.1L116.64 25.1H112.6L107.14 18.8ZM114.46 57.6C112.353 57.6 110.453 57.2333 108.76 56.5C107.08 55.7667 105.693 54.72 104.6 53.36C103.52 51.9867 102.833 50.36 102.54 48.48L107.54 47.72C107.967 49.4267 108.84 50.7467 110.16 51.68C111.493 52.6133 113.027 53.08 114.76 53.08C115.787 53.08 116.753 52.92 117.66 52.6C118.567 52.28 119.3 51.8133 119.86 51.2C120.433 50.5867 120.72 49.8333 120.72 48.94C120.72 48.54 120.653 48.1733 120.52 47.84C120.387 47.4933 120.187 47.1867 119.92 46.92C119.667 46.6533 119.333 46.4133 118.92 46.2C118.52 45.9733 118.053 45.78 117.52 45.62L110.08 43.42C109.44 43.2333 108.747 42.9867 108 42.68C107.267 42.36 106.567 41.9267 105.9 41.38C105.247 40.82 104.707 40.1133 104.28 39.26C103.867 38.3933 103.66 37.3267 103.66 36.06C103.66 34.2067 104.127 32.6533 105.06 31.4C106.007 30.1333 107.273 29.1867 108.86 28.56C110.46 27.9333 112.233 27.6267 114.18 27.64C116.153 27.6533 117.913 27.9933 119.46 28.66C121.007 29.3133 122.3 30.2667 123.34 31.52C124.38 32.7733 125.113 34.2867 125.54 36.06L120.36 36.96C120.147 35.9467 119.733 35.0867 119.12 34.38C118.52 33.66 117.78 33.1133 116.9 32.74C116.033 32.3667 115.107 32.1667 114.12 32.14C113.16 32.1267 112.267 32.2733 111.44 32.58C110.627 32.8733 109.967 33.3 109.46 33.86C108.967 34.42 108.72 35.0733 108.72 35.82C108.72 36.5267 108.933 37.1067 109.36 37.56C109.787 38 110.313 38.3533 110.94 38.62C111.58 38.8733 112.227 39.0867 112.88 39.26L118.04 40.7C118.747 40.8867 119.54 41.14 120.42 41.46C121.3 41.78 122.147 42.2267 122.96 42.8C123.773 43.3733 124.44 44.1267 124.96 45.06C125.493 45.9933 125.76 47.18 125.76 48.62C125.76 50.1133 125.447 51.4267 124.82 52.56C124.207 53.68 123.373 54.6133 122.32 55.36C121.267 56.1067 120.06 56.6667 118.7 57.04C117.353 57.4133 115.94 57.6 114.46 57.6ZM142.749 57C141.322 57.2667 139.922 57.38 138.549 57.34C137.189 57.3133 135.969 57.0667 134.889 56.6C133.809 56.12 132.989 55.3667 132.429 54.34C131.936 53.4067 131.676 52.4533 131.649 51.48C131.622 50.5067 131.609 49.4067 131.609 48.18V29.4H136.409V47.9C136.409 48.7667 136.416 49.5267 136.429 50.18C136.456 50.8333 136.596 51.3667 136.849 51.78C137.329 52.58 138.096 53.0267 139.149 53.12C140.202 53.2133 141.402 53.16 142.749 52.96V57ZM127.689 39.18V35.4H142.749V39.18H127.689ZM140.889 32.86L141.169 30.78C141.782 30.8333 142.269 30.7333 142.629 30.48C142.989 30.2133 143.229 29.8467 143.349 29.38C143.482 28.9 143.516 28.36 143.449 27.76H140.889V22.62H145.829V27.96C145.829 29.7067 145.416 31.0267 144.589 31.92C143.762 32.8133 142.529 33.1267 140.889 32.86ZM157.103 32.3H153.443L156.543 24.9H160.203L157.103 32.3ZM152.223 57.6C150.663 57.6 149.343 57.3067 148.263 56.72C147.183 56.12 146.363 55.3267 145.803 54.34C145.256 53.3533 144.983 52.2667 144.983 51.08C144.983 50.04 145.156 49.1067 145.503 48.28C145.849 47.44 146.383 46.72 147.103 46.12C147.823 45.5067 148.756 45.0067 149.903 44.62C150.769 44.34 151.783 44.0867 152.943 43.86C154.116 43.6333 155.383 43.4267 156.743 43.24C158.116 43.04 159.549 42.8267 161.043 42.6L159.323 43.58C159.336 42.0867 159.003 40.9867 158.323 40.28C157.643 39.5733 156.496 39.22 154.883 39.22C153.909 39.22 152.969 39.4467 152.063 39.9C151.156 40.3533 150.523 41.1333 150.163 42.24L145.763 40.86C146.296 39.0333 147.309 37.5667 148.803 36.46C150.309 35.3533 152.336 34.8 154.883 34.8C156.803 34.8 158.489 35.1133 159.943 35.74C161.409 36.3667 162.496 37.3933 163.203 38.82C163.589 39.58 163.823 40.36 163.903 41.16C163.983 41.9467 164.023 42.8067 164.023 43.74V57H159.803V52.32L160.503 53.08C159.529 54.64 158.389 55.7867 157.083 56.52C155.789 57.24 154.169 57.6 152.223 57.6ZM153.183 53.76C154.276 53.76 155.209 53.5667 155.983 53.18C156.756 52.7933 157.369 52.32 157.823 51.76C158.289 51.2 158.603 50.6733 158.763 50.18C159.016 49.5667 159.156 48.8667 159.183 48.08C159.223 47.28 159.243 46.6333 159.243 46.14L160.723 46.58C159.269 46.8067 158.023 47.0067 156.983 47.18C155.943 47.3533 155.049 47.52 154.303 47.68C153.556 47.8267 152.896 47.9933 152.323 48.18C151.763 48.38 151.289 48.6133 150.903 48.88C150.516 49.1467 150.216 49.4533 150.003 49.8C149.803 50.1467 149.703 50.5533 149.703 51.02C149.703 51.5533 149.836 52.0267 150.103 52.44C150.369 52.84 150.756 53.16 151.263 53.4C151.783 53.64 152.423 53.76 153.183 53.76ZM174.288 57L166.448 35.4H171.268L176.708 51.06L182.128 35.4H186.968L179.128 57H174.288ZM195.387 57.6C193.827 57.6 192.507 57.3067 191.427 56.72C190.347 56.12 189.527 55.3267 188.967 54.34C188.42 53.3533 188.147 52.2667 188.147 51.08C188.147 50.04 188.32 49.1067 188.667 48.28C189.014 47.44 189.547 46.72 190.267 46.12C190.987 45.5067 191.92 45.0067 193.067 44.62C193.934 44.34 194.947 44.0867 196.107 43.86C197.28 43.6333 198.547 43.4267 199.907 43.24C201.28 43.04 202.714 42.8267 204.207 42.6L202.487 43.58C202.5 42.0867 202.167 40.9867 201.487 40.28C200.807 39.5733 199.66 39.22 198.047 39.22C197.074 39.22 196.134 39.4467 195.227 39.9C194.32 40.3533 193.687 41.1333 193.327 42.24L188.927 40.86C189.46 39.0333 190.474 37.5667 191.967 36.46C193.474 35.3533 195.5 34.8 198.047 34.8C199.967 34.8 201.654 35.1133 203.107 35.74C204.574 36.3667 205.66 37.3933 206.367 38.82C206.754 39.58 206.987 40.36 207.067 41.16C207.147 41.9467 207.187 42.8067 207.187 43.74V57H202.967V52.32L203.667 53.08C202.694 54.64 201.554 55.7867 200.247 56.52C198.954 57.24 197.334 57.6 195.387 57.6ZM196.347 53.76C197.44 53.76 198.374 53.5667 199.147 53.18C199.92 52.7933 200.534 52.32 200.987 51.76C201.454 51.2 201.767 50.6733 201.927 50.18C202.18 49.5667 202.32 48.8667 202.347 48.08C202.387 47.28 202.407 46.6333 202.407 46.14L203.887 46.58C202.434 46.8067 201.187 47.0067 200.147 47.18C199.107 47.3533 198.214 47.52 197.467 47.68C196.72 47.8267 196.06 47.9933 195.487 48.18C194.927 48.38 194.454 48.6133 194.067 48.88C193.68 49.1467 193.38 49.4533 193.167 49.8C192.967 50.1467 192.867 50.5533 192.867 51.02C192.867 51.5533 193 52.0267 193.267 52.44C193.534 52.84 193.92 53.16 194.427 53.4C194.947 53.64 195.587 53.76 196.347 53.76ZM101.8 97V96.34L113.24 79.62H102.96V75.4H120.74V76.08L109.34 92.78H120.26V97H101.8ZM133.347 97.6C131.16 97.6 129.24 97.1267 127.587 96.18C125.933 95.2333 124.64 93.92 123.707 92.24C122.787 90.56 122.327 88.6267 122.327 86.44C122.327 84.08 122.78 82.0333 123.687 80.3C124.593 78.5533 125.853 77.2 127.467 76.24C129.08 75.28 130.947 74.8 133.067 74.8C135.307 74.8 137.207 75.3267 138.767 76.38C140.34 77.42 141.507 78.8933 142.267 80.8C143.027 82.7067 143.313 84.9533 143.127 87.54H138.347V85.78C138.333 83.4333 137.92 81.72 137.107 80.64C136.293 79.56 135.013 79.02 133.267 79.02C131.293 79.02 129.827 79.6333 128.867 80.86C127.907 82.0733 127.427 83.8533 127.427 86.2C127.427 88.3867 127.907 90.08 128.867 91.28C129.827 92.48 131.227 93.08 133.067 93.08C134.253 93.08 135.273 92.82 136.127 92.3C136.993 91.7667 137.66 91 138.127 90L142.887 91.44C142.06 93.3867 140.78 94.9 139.047 95.98C137.327 97.06 135.427 97.6 133.347 97.6ZM125.907 87.54V83.9H140.767V87.54H125.907ZM162.077 97L152.997 68.2H157.957L165.557 92.32L173.257 68.2H178.217L169.137 97H162.077ZM178.441 97V96.34L189.881 79.62H179.601V75.4H197.381V76.08L185.981 92.78H196.901V97H178.441ZM208.827 97.6C206.841 97.6 205.107 97.1 203.627 96.1C202.147 95.1 201.001 93.74 200.187 92.02C199.374 90.3 198.967 88.36 198.967 86.2C198.967 84.0133 199.374 82.0667 200.187 80.36C201.014 78.64 202.181 77.2867 203.687 76.3C205.194 75.3 206.967 74.8 209.007 74.8C211.061 74.8 212.781 75.3 214.167 76.3C215.567 77.2867 216.627 78.64 217.347 80.36C218.067 82.08 218.427 84.0267 218.427 86.2C218.427 88.3467 218.067 90.2867 217.347 92.02C216.627 93.74 215.554 95.1 214.127 96.1C212.701 97.1 210.934 97.6 208.827 97.6ZM209.567 93.28C210.861 93.28 211.901 92.9867 212.687 92.4C213.487 91.8 214.067 90.9667 214.427 89.9C214.801 88.8333 214.987 87.6 214.987 86.2C214.987 84.7867 214.801 83.5533 214.427 82.5C214.067 81.4333 213.501 80.6067 212.727 80.02C211.954 79.42 210.954 79.12 209.727 79.12C208.434 79.12 207.367 79.44 206.527 80.08C205.687 80.7067 205.067 81.56 204.667 82.64C204.267 83.7067 204.067 84.8933 204.067 86.2C204.067 87.52 204.261 88.72 204.647 89.8C205.047 90.8667 205.654 91.7133 206.467 92.34C207.281 92.9667 208.314 93.28 209.567 93.28ZM214.987 97V81.84H214.387V68.2H219.247V97H214.987ZM232.955 97.62C231.355 97.62 230.035 97.3533 228.995 96.82C227.955 96.2867 227.128 95.6067 226.515 94.78C225.901 93.9533 225.448 93.0733 225.155 92.14C224.861 91.2067 224.668 90.3267 224.575 89.5C224.495 88.66 224.455 87.98 224.455 87.46V75.4H229.335V85.8C229.335 86.4667 229.381 87.22 229.475 88.06C229.568 88.8867 229.781 89.6867 230.115 90.46C230.461 91.22 230.968 91.8467 231.635 92.34C232.315 92.8333 233.228 93.08 234.375 93.08C234.988 93.08 235.595 92.98 236.195 92.78C236.795 92.58 237.335 92.24 237.815 91.76C238.308 91.2667 238.701 90.5933 238.995 89.74C239.288 88.8867 239.435 87.8067 239.435 86.5L242.295 87.72C242.295 89.56 241.935 91.2267 241.215 92.72C240.508 94.2133 239.461 95.4067 238.075 96.3C236.688 97.18 234.981 97.62 232.955 97.62ZM240.015 97V90.3H239.435V75.4H244.275V97H240.015ZM259.274 97.6C257.047 97.6 255.147 97.1067 253.574 96.12C252 95.12 250.794 93.76 249.954 92.04C249.127 90.32 248.707 88.3733 248.694 86.2C248.707 83.9867 249.14 82.0267 249.994 80.32C250.86 78.6 252.087 77.2533 253.674 76.28C255.26 75.2933 257.147 74.8 259.334 74.8C261.787 74.8 263.86 75.42 265.554 76.66C267.26 77.8867 268.374 79.5667 268.894 81.7L264.094 83C263.72 81.84 263.1 80.94 262.234 80.3C261.367 79.6467 260.38 79.32 259.274 79.32C258.02 79.32 256.987 79.62 256.174 80.22C255.36 80.8067 254.76 81.62 254.374 82.66C253.987 83.7 253.794 84.88 253.794 86.2C253.794 88.2533 254.254 89.9133 255.174 91.18C256.094 92.4467 257.46 93.08 259.274 93.08C260.554 93.08 261.56 92.7867 262.294 92.2C263.04 91.6133 263.6 90.7667 263.974 89.66L268.894 90.76C268.227 92.96 267.06 94.6533 265.394 95.84C263.727 97.0133 261.687 97.6 259.274 97.6ZM287.842 97V86.6C287.842 85.92 287.795 85.1667 287.702 84.34C287.608 83.5133 287.388 82.72 287.042 81.96C286.708 81.1867 286.202 80.5533 285.522 80.06C284.855 79.5667 283.948 79.32 282.802 79.32C282.188 79.32 281.582 79.42 280.982 79.62C280.382 79.82 279.835 80.1667 279.342 80.66C278.862 81.14 278.475 81.8067 278.182 82.66C277.888 83.5 277.742 84.58 277.742 85.9L274.882 84.68C274.882 82.84 275.235 81.1733 275.942 79.68C276.662 78.1867 277.715 77 279.102 76.12C280.488 75.2267 282.195 74.78 284.222 74.78C285.822 74.78 287.142 75.0467 288.182 75.58C289.222 76.1133 290.048 76.7933 290.662 77.62C291.275 78.4467 291.728 79.3267 292.022 80.26C292.315 81.1933 292.502 82.08 292.582 82.92C292.675 83.7467 292.722 84.42 292.722 84.94V97H287.842ZM272.862 97V68.2H277.162V83.36H277.742V97H272.862ZM306.041 97.62C304.441 97.62 303.121 97.3533 302.081 96.82C301.041 96.2867 300.214 95.6067 299.601 94.78C298.987 93.9533 298.534 93.0733 298.241 92.14C297.947 91.2067 297.754 90.3267 297.661 89.5C297.581 88.66 297.541 87.98 297.541 87.46V75.4H302.421V85.8C302.421 86.4667 302.467 87.22 302.561 88.06C302.654 88.8867 302.867 89.6867 303.201 90.46C303.547 91.22 304.054 91.8467 304.721 92.34C305.401 92.8333 306.314 93.08 307.461 93.08C308.074 93.08 308.681 92.98 309.281 92.78C309.881 92.58 310.421 92.24 310.901 91.76C311.394 91.2667 311.787 90.5933 312.081 89.74C312.374 88.8867 312.521 87.8067 312.521 86.5L315.381 87.72C315.381 89.56 315.021 91.2267 314.301 92.72C313.594 94.2133 312.547 95.4067 311.161 96.3C309.774 97.18 308.067 97.62 306.041 97.62ZM313.101 97V90.3H312.521V75.4H317.361V97H313.101Z" fill="black"/>
</g>
<defs>
<clipPath id="clip0_1_13">
<rect width="319" height="116" fill="white"/>
</clipPath>
</defs>
</svg>
